<?xml version="1.0" encoding="UTF-8"?>
<svg width="159px" height="73px" viewBox="0 0 159 73" version="1.1" xmlns="http://www.w3.org/2000/svg" xmlns:xlink="http://www.w3.org/1999/xlink">
    <!-- Generator: Sketch 54.1 (76490) - https://sketchapp.com -->
    <title>2018-LDF-logo-tagline-2</title>
    <desc>Created with Sketch.</desc>
    <g id="Email" stroke="none" stroke-width="1" fill="none" fill-rule="evenodd">
        <g id="2019-03-LDF-Supporter-Update-Email" transform="translate(-321.000000, -57.000000)">
            <g id="2018-LDF-logo-tagline-2" transform="translate(321.000000, 57.000000)">
                <path d="M57.3336881,52.0956032 C61.2529801,52.0956032 64.9767137,52.2810232 68.6752046,52.0529712 C74.4644874,51.6958552 78.7879527,48.8421392 81.6131042,43.6836672 C85.7558086,36.1188232 85.9211918,28.0394752 84.9645805,19.7387912 C83.4555312,6.6396712 75.0784363,-1.3920808 57.3336881,1.5074792 L57.3336881,52.0956032 Z M1.3610458,52.1472872 L9.31916989,52.1472872 L9.31916989,1.1491952 L1.28821916,1.1491952 C1.2960531,0.8957392 1.30417719,0.6422832 1.31230128,0.3888272 L25.0401498,0.3888272 C25.046533,0.6270992 25.0529162,0.8653712 25.0592995,1.1036432 L17.0794144,1.1036432 L17.0794144,51.5358392 C22.8353305,51.5358392 28.6988907,52.0964792 34.4022903,51.3755312 C39.9301516,50.6773592 42.403356,45.8543952 44.3856334,41.0918752 C44.9522885,39.7302792 45.3756115,38.3085312 46.4227484,37.0140952 L46.4227484,51.8850712 C47.5717265,51.9647872 48.4676973,52.0269832 49.5757648,52.1034872 L49.5757648,1.2023392 L41.3060239,1.2023392 C41.842794,0.5462152 41.989898,0.2089552 42.1372922,0.2089552 C51.8374527,0.2016552 61.5808451,-0.3548968 71.2267484,0.3794832 C84.532263,1.3927232 93.4768834,11.4719792 94.0705221,24.8152112 C94.7120349,39.2277472 87.0130111,50.0454712 73.817752,52.8060392 C70.3757502,53.5261112 66.7451535,53.5366232 63.2018907,53.5264032 C43.5854108,53.4720912 23.9695111,53.3103232 4.3530312,53.1868072 C3.35202755,53.1803832 2.35073376,53.1859312 1.34943996,53.1859312 C1.35350201,52.8399112 1.35727391,52.4935992 1.3610458,52.1472872 L1.3610458,52.1472872 Z" id="Fill-1" fill="#292728"></path>
                <path d="M105.914716,1.2685064 L105.914716,25.8338824 C109.684873,25.1435944 113.836862,25.4528224 116.4946,23.5957024 C119.143632,21.7450064 120.294351,17.7221224 122.00099,14.8225624 L122.00099,36.9841944 C120.341645,34.0554344 119.247505,29.9563384 116.597021,28.0597984 C113.965977,26.1766904 109.768435,26.5095704 105.957078,25.8160704 L105.957078,52.1877584 L113.880965,52.1877584 C113.869649,52.4344984 113.858043,52.6812384 113.846727,52.9282704 L90.2381288,52.9282704 C90.2279737,52.7092704 90.2175285,52.4905624 90.2073734,52.2718544 L98.1170431,52.2718544 L98.1170431,1.1744824 L90.2360978,1.1744824 C90.2427712,0.9292024 90.2497347,0.6842144 90.256408,0.4389344 L132.338021,0.4389344 L132.338021,12.9298184 C132.171768,12.9669024 132.005514,13.0039864 131.83926,13.0410704 C131.199778,11.5731864 130.570742,10.1006304 129.919074,8.6382944 C127.841339,3.9741784 124.379897,1.3193144 119.187154,1.2758064 C114.870072,1.2398904 110.55241,1.2685064 105.914716,1.2685064" id="Fill-3" fill="#292728"></path>
                <polygon id="Fill-5" fill="#F79837" points="0 62.396896 111.99635 62.396896 111.99635 57.140896 0 57.140896"></polygon>
                <polygon id="Fill-7" fill="#39BBA3" points="111.99635 62.396896 135.788321 62.396896 135.788321 57.140896 111.99635 57.140896"></polygon>
                <polygon id="Fill-8" fill="#1A4274" points="135.208029 62.396896 159 62.396896 159 57.140896 135.208029 57.140896"></polygon>
                <path d="M0.779883394,72.0457148 L1.5023469,72.0457148 C2.36669179,72.0457148 2.96584325,71.9914028 3.30038157,71.8830708 C3.77070821,71.7294788 4.1403542,71.4523708 4.40960967,71.0523308 C4.67886515,70.6519988 4.81320274,70.1626068 4.81320274,69.5838628 C4.81320274,68.9770868 4.66725931,68.4587868 4.37566259,68.0283788 C4.08377573,67.5982628 3.67699106,67.3033428 3.15559872,67.1439108 C2.76477208,67.0241908 2.1200677,66.9643308 1.22177573,66.9643308 L0.779883394,66.9643308 L0.779883394,72.0457148 Z M0.180731934,72.6402268 L0.180731934,66.3482108 L1.47681405,66.3482108 C2.41195456,66.3482108 3.09060602,66.4238388 3.51276843,66.5750948 C4.11917354,66.7888388 4.59298193,67.1596788 4.93419361,67.6870308 C5.27569544,68.2146748 5.44659142,68.8433508 5.44659142,69.5733508 C5.44659142,70.2034868 5.31109325,70.7582868 5.04067719,71.2371668 C4.76997099,71.7163388 4.4186042,72.0699508 3.98657682,72.2980028 C3.55454945,72.5263468 2.94901478,72.6402268 2.16968266,72.6402268 L0.180731934,72.6402268 Z" id="Fill-9" fill="#292728"></path>
                <polygon id="Fill-10" fill="#292728" points="8.24632609 66.3482984 11.8293389 66.3482984 11.8293389 66.9641264 8.8710104 66.9641264 8.8710104 68.9360024 11.803806 68.9360024 11.803806 69.5521224 8.8710104 69.5521224 8.8710104 72.0241944 11.803806 72.0241944 11.803806 72.6403144 8.24632609 72.6403144"></polygon>
                <polygon id="Fill-11" fill="#292728" points="14.4929661 66.3482984 17.6253821 66.3482984 17.6253821 66.9641264 15.1176504 66.9641264 15.1176504 68.9360024 17.6253821 68.9360024 17.6253821 69.5521224 15.1176504 69.5521224 15.1176504 72.6403144 14.4929661 72.6403144"></polygon>
                <polygon id="Fill-12" fill="#292728" points="20.3018338 66.3482984 23.8848465 66.3482984 23.8848465 66.9641264 20.9265181 66.9641264 20.9265181 68.9360024 23.8593137 68.9360024 23.8593137 69.5521224 20.9265181 69.5521224 20.9265181 72.0241944 23.8593137 72.0241944 23.8593137 72.6403144 20.3018338 72.6403144"></polygon>
                <polygon id="Fill-13" fill="#292728" points="26.5527099 72.640256 26.5527099 66.34824 26.6887883 66.34824 30.8497719 71.171496 30.8497719 66.34824 31.466042 66.34824 31.466042 72.640256 31.3256113 72.640256 27.198865 67.875984 27.198865 72.640256"></polygon>
                <path d="M35.1709451,72.0457148 L35.8934086,72.0457148 C36.7577535,72.0457148 37.3569049,71.9914028 37.6914432,71.8830708 C38.1617699,71.7294788 38.5314159,71.4523708 38.8006714,71.0523308 C39.0699268,70.6519988 39.2042644,70.1626068 39.2042644,69.5838628 C39.2042644,68.9770868 39.058321,68.4587868 38.7667243,68.0283788 C38.4748374,67.5982628 38.0680527,67.3033428 37.5466604,67.1439108 C37.1558338,67.0241908 36.5111294,66.9643308 35.6128374,66.9643308 L35.1709451,66.9643308 L35.1709451,72.0457148 Z M34.5717936,72.6402268 L34.5717936,66.3482108 L35.8678757,66.3482108 C36.8030162,66.3482108 37.4816677,66.4238388 37.9038301,66.5750948 C38.5102352,66.7888388 38.9840436,67.1596788 39.3252553,67.6870308 C39.6667571,68.2146748 39.8376531,68.8433508 39.8376531,69.5733508 C39.8376531,70.2034868 39.7021549,70.7582868 39.4317389,71.2371668 C39.1610327,71.7163388 38.8096659,72.0699508 38.3776385,72.2980028 C37.9456111,72.5263468 37.3400765,72.6402268 36.5607443,72.6402268 L34.5717936,72.6402268 Z" id="Fill-14" fill="#292728"></path>
                <polygon id="Fill-15" fill="#292728" points="46.6314504 66.3482984 50.2144631 66.3482984 50.2144631 66.9641264 47.2561347 66.9641264 47.2561347 68.9360024 50.1889303 68.9360024 50.1889303 69.5521224 47.2561347 69.5521224 47.2561347 72.0241944 50.1889303 72.0241944 50.1889303 72.6403144 46.6314504 72.6403144"></polygon>
                <path d="M53.4773578,72.0457148 L54.1998214,72.0457148 C55.0641662,72.0457148 55.6633177,71.9914028 55.997856,71.8830708 C56.4681827,71.7294788 56.8378286,71.4523708 57.1070841,71.0523308 C57.3763396,70.6519988 57.5106772,70.1626068 57.5106772,69.5838628 C57.5106772,68.9770868 57.3647338,68.4587868 57.073137,68.0283788 C56.7812502,67.5982628 56.3744655,67.3033428 55.8530732,67.1439108 C55.4622465,67.0241908 54.8175422,66.9643308 53.9192502,66.9643308 L53.4773578,66.9643308 L53.4773578,72.0457148 Z M52.8782064,72.6402268 L52.8782064,66.3482108 L54.1742885,66.3482108 C55.109429,66.3482108 55.7880805,66.4238388 56.2102429,66.5750948 C56.816648,66.7888388 57.2907465,67.1596788 57.6319582,67.6870308 C57.97346,68.2146748 58.1440659,68.8433508 58.1440659,69.5733508 C58.1440659,70.2034868 58.0088578,70.7582868 57.7384418,71.2371668 C57.4677356,71.7163388 57.1163688,72.0699508 56.6843414,72.2980028 C56.2520239,72.5263468 55.6464892,72.6402268 54.8671571,72.6402268 L52.8782064,72.6402268 Z" id="Fill-16" fill="#292728"></path>
                <path d="M60.9608031,66.3482984 L61.5854874,66.3482984 L61.5854874,70.1466344 C61.5854874,70.5971904 61.5941918,70.8780944 61.6110203,70.9893464 C61.642356,71.2372544 61.7146024,71.4448664 61.8277593,71.6113064 C61.9412064,71.7786224 62.115294,71.9181984 62.3506024,72.0306184 C62.5859108,72.1436224 62.8223797,72.1996864 63.0602995,72.1996864 C63.2671735,72.1996864 63.4656334,72.1555944 63.6553889,72.0671184 C63.8451443,71.9786424 64.0038542,71.8560024 64.1315184,71.6991984 C64.2588925,71.5423944 64.3523195,71.3528864 64.4120896,71.1303824 C64.4544509,70.9706584 64.4756316,70.6427424 64.4756316,70.1466344 L64.4756316,66.3482984 L65.100606,66.3482984 L65.100606,70.1466344 C65.100606,70.7084424 65.0460586,71.1625024 64.9369637,71.5088144 C64.8278688,71.8554184 64.609679,72.1570544 64.2823943,72.4134304 C63.9551097,72.6700984 63.5590604,72.7985784 63.0945367,72.7985784 C62.5899728,72.7985784 62.1579454,72.6773984 61.7981644,72.4350384 C61.4383834,72.1926784 61.1972721,71.8717704 61.0757009,71.4726064 C60.9991024,71.2273264 60.9608031,70.7852384 60.9608031,70.1466344 L60.9608031,66.3482984 Z" id="Fill-17" fill="#292728"></path>
                <path d="M74.0459808,67.5160064 L73.5530228,67.8967744 C73.2808659,67.5402424 72.9544516,67.2701424 72.57349,67.0858904 C72.1922381,66.9022224 71.7735575,66.8102424 71.317448,66.8102424 C70.818687,66.8102424 70.3567746,66.9308384 69.9317108,67.1714464 C69.5066469,67.4126384 69.1776214,67.7361744 68.9437637,68.1426384 C68.709906,68.5488104 68.5929772,69.0060824 68.5929772,69.5135784 C68.5929772,70.2806624 68.8543987,70.9207264 69.3772418,71.4340624 C69.9000849,71.9473984 70.5592965,72.2040664 71.3557473,72.2040664 C72.2311177,72.2040664 72.9637363,71.8589224 73.5530228,71.1689264 L74.0459808,71.5453144 C73.7343641,71.9444784 73.3455684,72.2531224 72.8793038,72.4715384 C72.4133294,72.6893704 71.8925173,72.7985784 71.317448,72.7985784 C70.2235976,72.7985784 69.3609936,72.4321184 68.7290557,71.6991984 C68.1992491,71.0804504 67.9343458,70.3332224 67.9343458,69.4578064 C67.9343458,68.5368384 68.2552473,67.7618704 68.8970502,67.1331944 C69.5388531,66.5042264 70.3425575,66.1900344 71.3087436,66.1900344 C71.8925173,66.1900344 72.4197126,66.3062504 72.8900392,66.5383904 C73.3603659,66.7711144 73.7456797,67.0966944 74.0459808,67.5160064" id="Fill-18" fill="#292728"></path>
                <path d="M79.3595693,67.6851036 L78.2883504,69.9627036 L80.4255657,69.9627036 L79.3595693,67.6851036 Z M79.4381989,66.3483276 L82.3538759,72.6403436 L81.6789964,72.6403436 L80.6956916,70.5700636 L78.0025566,70.5700636 L77.0285365,72.6403436 L76.3313157,72.6403436 L79.285292,66.3483276 L79.4381989,66.3483276 Z" id="Fill-19" fill="#292728"></path>
                <polygon id="Fill-20" fill="#292728" points="83.5811354 66.964214 83.5811354 66.348386 87.0068891 66.348386 87.0068891 66.964214 85.6127376 66.964214 85.6127376 72.64011 84.9752869 72.64011 84.9752869 66.964214"></polygon>
                <polygon id="Fill-21" fill="#292728" points="89.4965447 66.3482984 93.0795575 66.3482984 93.0795575 66.9641264 90.121229 66.9641264 90.121229 68.9360024 93.0540246 68.9360024 93.0540246 69.5521224 90.121229 69.5521224 90.121229 72.0241944 93.0540246 72.0241944 93.0540246 72.6403144 89.4965447 72.6403144"></polygon>
                <polygon id="Fill-22" fill="#292728" points="99.7414834 66.3482984 103.324496 66.3482984 103.324496 66.9641264 100.366168 66.9641264 100.366168 68.9360024 103.298963 68.9360024 103.298963 69.5521224 100.366168 69.5521224 100.366168 72.0241944 103.298963 72.0241944 103.298963 72.6403144 99.7414834 72.6403144"></polygon>
                <polygon id="Fill-23" fill="#292728" points="105.703345 72.640256 106.598445 66.34824 106.700287 66.34824 109.241675 71.511092 111.758692 66.34824 111.859082 66.34824 112.758535 72.640256 112.146037 72.640256 111.528316 68.140536 109.317694 72.640256 109.157823 72.640256 106.921088 68.106372 106.306849 72.640256"></polygon>
                <path d="M116.191687,66.964214 L116.191687,69.098734 L117.24985,69.111582 C117.677815,69.111582 117.990882,69.072454 118.189342,68.993906 C118.387512,68.915942 118.54332,68.789214 118.656768,68.614014 C118.770215,68.439106 118.826793,68.243466 118.826793,68.027094 C118.826793,67.816562 118.770215,67.623842 118.656768,67.448642 C118.54332,67.273734 118.393895,67.149342 118.208202,67.075174 C118.022799,67.001298 117.719016,66.964214 117.296853,66.964214 L116.191687,66.964214 Z M115.567003,66.348386 L116.812309,66.348386 C117.526359,66.348386 118.008001,66.37963 118.257236,66.44241 C118.614406,66.530886 118.906003,66.712802 119.132897,66.987866 C119.359501,67.26293 119.472948,67.608658 119.472948,68.02505 C119.472948,68.44407 119.362403,68.79009 119.141311,69.062234 C118.92022,69.33467 118.615567,69.517754 118.227642,69.611778 C117.944169,69.680398 117.414362,69.714562 116.637932,69.714562 L116.191687,69.714562 L116.191687,72.64011 L115.567003,72.64011 L115.567003,66.348386 Z" id="Fill-24" fill="#292728"></path>
                <path d="M125.31144,66.8016868 C124.848657,66.8016868 124.410536,66.9228668 123.996208,67.1655188 C123.581589,67.4081708 123.258077,67.7349188 123.02538,68.1460548 C122.792682,68.5568988 122.676334,69.0147548 122.676334,69.5202068 C122.676334,70.2677268 122.933984,70.8990308 123.448993,71.4141188 C123.964002,71.9294988 124.584914,72.1867508 125.31144,72.1867508 C125.796854,72.1867508 126.246,72.0684908 126.658878,71.8316788 C127.071465,71.5945748 127.393818,71.2710388 127.625064,70.8596108 C127.85631,70.4487668 127.972078,69.9923708 127.972078,69.4898388 C127.972078,68.9905188 127.85631,68.5387948 127.625064,68.1349588 C127.393818,67.7314148 127.068274,67.4081708 126.648142,67.1655188 C126.228011,66.9228668 125.782637,66.8016868 125.31144,66.8016868 M125.283586,66.1899468 C126.230622,66.1899468 127.023011,66.5079348 127.661332,67.1439108 C128.299073,67.7798868 128.617943,68.5624468 128.617943,69.4921748 C128.617943,70.4131428 128.299943,71.1945348 127.663073,71.8360588 C127.026783,72.4775828 126.250642,72.7984908 125.334651,72.7984908 C124.407635,72.7984908 123.625111,72.4790428 122.98708,71.8404388 C122.349339,71.2015428 122.030179,70.4289108 122.030179,69.5219588 C122.030179,68.9175188 122.175542,68.3571708 122.465978,67.8412068 C122.756704,67.3249508 123.153044,66.9208228 123.654996,66.6285308 C124.156949,66.3362388 124.699812,66.1899468 125.283586,66.1899468" id="Fill-25" fill="#292728"></path>
                <polygon id="Fill-26" fill="#292728" points="131.103305 66.3482984 131.745108 66.3482984 133.02204 70.8821824 134.814562 66.3482984 134.944257 66.3482984 136.715889 70.8821824 138.014582 66.3482984 138.651743 66.3482984 136.855159 72.6403144 136.739101 72.6403144 134.883617 67.8795464 132.992736 72.6403144 132.875807 72.6403144"></polygon>
                <polygon id="Fill-27" fill="#292728" points="141.400383 66.3482984 144.983396 66.3482984 144.983396 66.9641264 142.025067 66.9641264 142.025067 68.9360024 144.957863 68.9360024 144.957863 69.5521224 142.025067 69.5521224 142.025067 72.0241944 144.957863 72.0241944 144.957863 72.6403144 141.400383 72.6403144"></polygon>
                <path d="M148.305799,66.964214 L148.305799,69.102822 L149.382821,69.111582 C149.799761,69.111582 150.108766,69.071578 150.308677,68.99157 C150.508878,68.911854 150.664976,68.78425 150.777263,68.60905 C150.888969,68.433558 150.945257,68.237334 150.945257,68.02067 C150.945257,67.809846 150.888389,67.618002 150.774942,67.445138 C150.661204,67.27315 150.512359,67.149634 150.327827,67.075466 C150.143294,67.001298 149.8369,66.964214 149.408354,66.964214 L148.305799,66.964214 Z M147.681115,66.348386 L148.926422,66.348386 C149.620451,66.348386 150.090777,66.37671 150.337401,66.433942 C150.708498,66.51979 151.01025,66.702874 151.242657,66.98407 C151.475064,67.265558 151.591122,67.61187 151.591122,68.023006 C151.591122,68.365522 151.511042,68.666574 151.351172,68.926454 C151.190721,69.186334 150.962086,69.382558 150.664686,69.515418 C150.366996,69.647986 149.95615,69.716022 149.432146,69.718942 L151.680487,72.64011 L150.907538,72.64011 L148.659197,69.718942 L148.305799,69.718942 L148.305799,72.64011 L147.681115,72.64011 L147.681115,66.348386 Z" id="Fill-28" fill="#292728"></path>
            </g>
        </g>
    </g>
</svg>