<svg width="80" height="80" xmlns="http://www.w3.org/2000/svg" xmlns:xlink="http://www.w3.org/1999/xlink"><defs><path id="a" d="M0 79.987h80V0H0z"/></defs><g fill="none" fill-rule="evenodd"><g><mask id="b" fill="#fff"><use xlink:href="#a"/></mask><path fill="#FFFFFE" mask="url(#b)" d="M0 80h80V0H0z"/></g><path fill="#D02139" d="M1.905 78.096h76.19V1.906H1.905z"/><path fill="#FFFFFE" d="M16.53 20.186l-1.998-8.024h-.033l-1.964 8.024H9.91L6.79 8.399h2.592l1.865 8.023h.033l2.047-8.023h2.427l2.014 8.122h.033l1.931-8.122h2.542l-3.17 11.787H16.53M27.433 13.648c-.28-.308-.707-.462-1.28-.462-.374 0-.685.064-.932.19a1.722 1.722 0 0 0-.908 1.065c-.06.209-.096.396-.107.561h3.813c-.11-.594-.305-1.045-.586-1.354zm-2.65 4.49c.353.342.859.512 1.52.512.472 0 .88-.118 1.22-.354.342-.237.551-.488.628-.752h2.064c-.33 1.024-.837 1.756-1.52 2.196-.682.44-1.507.66-2.475.66-.672 0-1.277-.107-1.816-.322a3.774 3.774 0 0 1-1.37-.916 4.121 4.121 0 0 1-.867-1.42 5.19 5.19 0 0 1-.305-1.816c0-.638.104-1.232.313-1.782.21-.55.506-1.026.892-1.428a4.196 4.196 0 0 1 1.378-.95 4.42 4.42 0 0 1 1.775-.346c.726 0 1.359.14 1.898.42.54.281.982.658 1.329 1.132a4.65 4.65 0 0 1 .751 1.617c.154.606.21 1.239.165 1.899h-6.157c.033.76.225 1.31.578 1.65zM41.283 16.215c-.149.05-.308.091-.479.124-.17.033-.35.06-.536.083-.187.022-.374.05-.561.082-.177.033-.35.077-.52.132-.171.056-.32.13-.446.223a1.065 1.065 0 0 0-.306.355 1.144 1.144 0 0 0-.115.545c0 .209.038.385.115.528a.885.885 0 0 0 .314.339c.132.082.286.14.462.173.176.033.358.05.545.05.462 0 .82-.078 1.073-.232.253-.154.44-.338.561-.553a1.76 1.76 0 0 0 .223-.652c.027-.22.041-.396.041-.528v-.875a1.049 1.049 0 0 1-.37.206zm-4.63-3.31a2.81 2.81 0 0 1 .924-.875c.374-.22.795-.376 1.263-.47.468-.093.938-.14 1.412-.14.429 0 .863.03 1.304.09a4 4 0 0 1 1.204.355c.364.177.66.421.892.735.231.314.347.73.347 1.246v4.441c0 .385.021.754.066 1.106.043.353.12.617.231.793h-2.377a3.357 3.357 0 0 1-.165-.826 3.056 3.056 0 0 1-1.321.809 5.303 5.303 0 0 1-1.552.231c-.407 0-.787-.05-1.139-.149a2.604 2.604 0 0 1-.924-.462 2.146 2.146 0 0 1-.62-.792c-.148-.32-.222-.699-.222-1.14 0-.483.085-.882.256-1.196.17-.314.39-.564.66-.751.27-.187.578-.327.924-.42a9.933 9.933 0 0 1 1.049-.224c.352-.055.698-.099 1.04-.132.34-.033.643-.082.907-.148.264-.066.474-.163.628-.29.154-.126.225-.31.214-.552 0-.254-.04-.454-.123-.603a.913.913 0 0 0-.33-.347 1.302 1.302 0 0 0-.48-.165 3.936 3.936 0 0 0-.585-.041c-.462 0-.826.1-1.09.297-.264.198-.418.529-.462.99H36.24c.033-.55.17-1.006.413-1.37zM47.795 11.65v1.586h.034a2.936 2.936 0 0 1 1.09-1.312c.24-.16.5-.284.775-.372.275-.088.561-.132.858-.132.154 0 .325.027.512.082v2.18a4.544 4.544 0 0 0-.842-.083c-.43 0-.792.071-1.09.215a1.89 1.89 0 0 0-.718.586 2.342 2.342 0 0 0-.388.866c-.076.33-.115.688-.115 1.073v3.847h-2.344V11.65h2.228M56.982 13.648c-.28-.308-.707-.462-1.28-.462-.373 0-.684.064-.932.19a1.722 1.722 0 0 0-.908 1.065c-.06.209-.096.396-.107.561h3.813c-.11-.594-.305-1.045-.586-1.354zm-2.65 4.49c.352.342.859.512 1.52.512.472 0 .88-.118 1.22-.354.342-.237.55-.488.628-.752h2.064c-.33 1.024-.837 1.756-1.52 2.196-.682.44-1.507.66-2.475.66-.672 0-1.277-.107-1.816-.322a3.774 3.774 0 0 1-1.37-.916 4.117 4.117 0 0 1-.867-1.42 5.185 5.185 0 0 1-.305-1.816c0-.638.104-1.232.313-1.782.21-.55.506-1.026.892-1.428a4.197 4.197 0 0 1 1.378-.95 4.42 4.42 0 0 1 1.775-.346c.726 0 1.359.14 1.898.42.54.281.982.658 1.329 1.132.346.473.597 1.012.751 1.617.154.606.21 1.239.165 1.899h-6.157c.033.76.225 1.31.577 1.65zM12.32 28.159v1.568h-1.717v4.226c0 .396.066.66.198.793.132.132.397.198.793.198.132 0 .258-.006.38-.017.12-.01.236-.027.346-.05v1.817a5.494 5.494 0 0 1-.66.065 15.5 15.5 0 0 1-.71.017 6.84 6.84 0 0 1-1.032-.074 2.431 2.431 0 0 1-.858-.29 1.527 1.527 0 0 1-.586-.61c-.144-.264-.215-.61-.215-1.04v-5.035h-1.42V28.16h1.42V25.6h2.344v2.559h1.717M16.034 24.907v4.44h.05c.297-.495.676-.855 1.139-1.08.462-.226.913-.34 1.353-.34.628 0 1.142.086 1.544.257.401.17.718.407.95.71.23.302.392.67.486 1.106.093.434.14.916.14 1.444v5.25h-2.344v-4.82c0-.705-.11-1.23-.33-1.577-.22-.347-.61-.52-1.172-.52-.638 0-1.1.19-1.387.57-.286.379-.429 1.004-.429 1.873v4.474H13.69V24.907h2.344M28.39 30.156c-.28-.308-.707-.462-1.28-.462-.374 0-.684.064-.932.19a1.725 1.725 0 0 0-.908 1.065c-.06.209-.096.396-.107.561h3.813c-.11-.594-.305-1.045-.586-1.354zm-2.65 4.49c.353.342.86.512 1.52.512.472 0 .88-.118 1.22-.354.342-.237.551-.488.628-.752h2.064c-.33 1.024-.837 1.756-1.52 2.196-.682.44-1.507.66-2.475.66-.672 0-1.277-.107-1.816-.322a3.775 3.775 0 0 1-1.37-.916 4.12 4.12 0 0 1-.867-1.42 5.192 5.192 0 0 1-.305-1.816c0-.638.104-1.232.313-1.782.21-.55.506-1.027.892-1.428a4.192 4.192 0 0 1 1.378-.95 4.419 4.419 0 0 1 1.775-.346c.726 0 1.359.14 1.898.42.54.282.982.658 1.329 1.132.347.473.597 1.012.751 1.617.154.606.21 1.239.165 1.899h-6.157c.033.76.225 1.31.578 1.65z"/><path d="M40.466 34.514c.374 0 .737-.06 1.09-.181.352-.121.665-.322.94-.603.275-.28.496-.646.66-1.098.166-.45.248-1 .248-1.65 0-.594-.058-1.13-.173-1.61a3.212 3.212 0 0 0-.57-1.23 2.53 2.53 0 0 0-1.048-.784c-.435-.181-.971-.272-1.61-.272h-1.848v7.428h2.31zm.182-9.607c.759 0 1.466.121 2.12.363a4.607 4.607 0 0 1 1.701 1.09c.479.484.853 1.09 1.122 1.816.27.726.405 1.579.405 2.558 0 .859-.11 1.65-.33 2.377a5.24 5.24 0 0 1-.999 1.882A4.683 4.683 0 0 1 43 36.24c-.666.302-1.45.454-2.352.454h-5.085V24.907h5.085zM49.529 28.159v1.585h.033a2.917 2.917 0 0 1 1.09-1.312c.241-.16.5-.284.775-.372a2.79 2.79 0 0 1 .858-.132c.155 0 .325.028.512.082v2.18a4.544 4.544 0 0 0-.842-.083c-.429 0-.792.072-1.09.214a1.888 1.888 0 0 0-.717.587 2.34 2.34 0 0 0-.388.866c-.077.33-.116.688-.116 1.073v3.847H47.3v-8.535h2.229M59.747 36.694v-1.19h-.05c-.297.496-.682.854-1.155 1.074-.473.22-.958.33-1.453.33-.627 0-1.141-.082-1.543-.248a2.22 2.22 0 0 1-.95-.701 2.745 2.745 0 0 1-.487-1.106 6.863 6.863 0 0 1-.14-1.445v-5.25h2.344v4.821c0 .705.11 1.23.33 1.577.22.346.611.52 1.172.52.639 0 1.1-.19 1.387-.57.286-.38.43-1.004.43-1.874V28.16h2.343v8.535h-2.228M68.364 34.482c.253-.133.462-.308.627-.529.165-.22.289-.47.371-.75.083-.282.124-.576.124-.884 0-.352-.032-.685-.099-.999a2.487 2.487 0 0 0-.33-.834 1.71 1.71 0 0 0-.61-.577c-.254-.143-.573-.215-.958-.215-.33 0-.614.066-.85.198a1.79 1.79 0 0 0-.595.537c-.16.225-.275.484-.346.776a3.843 3.843 0 0 0-.107.916c0 .308.03.613.09.916.06.303.165.575.314.817s.344.44.586.594c.242.155.545.232.908.232.33 0 .621-.066.875-.198zm3.21 2.839a2.9 2.9 0 0 1-.602 1.23c-.308.38-.754.701-1.337.965-.583.265-1.365.397-2.344.397-.419 0-.845-.053-1.28-.157a4.063 4.063 0 0 1-1.188-.487 2.92 2.92 0 0 1-.892-.85c-.237-.347-.37-.763-.404-1.247h2.328c.11.44.324.746.643.916.32.171.688.256 1.107.256.66 0 1.141-.198 1.444-.594.303-.396.448-.897.437-1.502v-1.123h-.032a2.322 2.322 0 0 1-1.082.999c-.468.215-.96.322-1.477.322-.639 0-1.19-.113-1.651-.338a3.132 3.132 0 0 1-1.14-.925 3.86 3.86 0 0 1-.651-1.37 6.493 6.493 0 0 1-.207-1.66c0-.55.08-1.08.24-1.592.16-.512.393-.963.701-1.354.308-.39.691-.702 1.148-.933.456-.23.982-.346 1.577-.346.56 0 1.053.104 1.476.314.424.209.78.56 1.066 1.056h.032v-1.14h2.229v7.99c0 .342-.047.733-.14 1.173zM12.485 46.962c.297 0 .583-.022.859-.067.274-.043.517-.129.726-.255.209-.127.377-.306.503-.537.127-.231.19-.533.19-.908 0-.374-.063-.677-.19-.908a1.4 1.4 0 0 0-.503-.537 2.017 2.017 0 0 0-.726-.255 5.433 5.433 0 0 0-.859-.066h-2.014v3.533h2.014zm.71-5.547c.737 0 1.365.107 1.882.321.517.215.938.499 1.263.85.324.353.56.755.71 1.206.148.452.222.92.222 1.403 0 .473-.074.939-.222 1.395a3.26 3.26 0 0 1-.71 1.214c-.325.352-.746.635-1.263.85-.517.214-1.145.322-1.882.322H10.47v4.226H7.88V41.415h5.316zM19.996 49.94c.066.326.179.618.339.876a1.8 1.8 0 0 0 .635.62c.264.153.594.23.99.23.397 0 .73-.077 1-.23.269-.155.484-.36.643-.62.16-.258.273-.55.339-.875a5.145 5.145 0 0 0 0-2.006 2.576 2.576 0 0 0-.339-.874 1.877 1.877 0 0 0-.644-.62c-.27-.159-.602-.239-.999-.239-.396 0-.726.08-.99.24a1.9 1.9 0 0 0-.635.619c-.16.253-.273.544-.339.874a5.11 5.11 0 0 0 0 2.006zm-2.13-2.855c.21-.555.506-1.029.892-1.42a4 4 0 0 1 1.387-.908c.539-.214 1.144-.321 1.815-.321.672 0 1.28.107 1.825.321.544.216 1.009.518 1.395.909a4 4 0 0 1 .89 1.42c.21.555.315 1.174.315 1.856 0 .683-.105 1.3-.314 1.85a4.012 4.012 0 0 1-.891 1.411c-.386.39-.85.69-1.395.9a5.055 5.055 0 0 1-1.825.313c-.67 0-1.276-.104-1.815-.314a3.89 3.89 0 0 1-1.387-.899 4.004 4.004 0 0 1-.892-1.412c-.209-.55-.313-1.166-.313-1.849 0-.682.104-1.3.313-1.857zM27.771 53.202h2.344V41.415h-2.344zM32.03 53.202h2.344v-8.535H32.03v8.535zm0-9.856h2.344v-1.931H32.03v1.931zM40.168 46.202c-.374 0-.687.085-.94.256-.254.17-.46.39-.62.66-.16.27-.272.567-.338.892a4.647 4.647 0 0 0 0 1.906c.066.32.174.609.322.867.149.259.35.47.603.636.253.165.561.248.924.248.562 0 .993-.157 1.296-.47.303-.315.493-.736.57-1.264h2.261c-.154 1.134-.594 1.998-1.32 2.592-.727.594-1.657.891-2.79.891a4.674 4.674 0 0 1-1.759-.322 3.897 3.897 0 0 1-1.361-.9 4.095 4.095 0 0 1-.875-1.378 4.78 4.78 0 0 1-.314-1.758c0-.66.096-1.273.289-1.84a4.14 4.14 0 0 1 .85-1.47 3.89 3.89 0 0 1 1.37-.966c.54-.23 1.156-.346 1.85-.346.505 0 .992.066 1.46.198.468.132.886.333 1.255.602.369.27.668.606.9 1.008.23.401.363.877.396 1.427h-2.295c-.154-.979-.732-1.469-1.734-1.469M48.72 55.744c-.452.297-1.079.446-1.882.446-.242 0-.482-.009-.719-.026a29.934 29.934 0 0 1-.717-.057v-1.931l.676.066c.232.022.463.027.694.016.308-.033.537-.154.685-.363.148-.21.223-.44.223-.693 0-.188-.033-.364-.1-.528l-2.988-8.007h2.493l1.932 5.844h.033l1.865-5.844h2.427l-3.566 9.591c-.253.693-.605 1.189-1.056 1.486M13.905 65.153l-1.486-4.325h-.033l-1.535 4.325h3.054zm-.149-7.23l4.408 11.787h-2.69l-.892-2.625h-4.408L9.25 69.71H6.64l4.457-11.787h2.658zM19.17 69.71h2.345V57.923H19.17zM23.43 69.71h2.344V57.923H23.43zM27.606 69.71h2.344v-8.535h-2.344v8.535zm0-9.856h2.344v-1.931h-2.344v1.931zM36.743 65.74c-.148.05-.308.09-.479.123-.17.034-.349.06-.536.083a9.94 9.94 0 0 0-.561.082c-.176.034-.35.078-.52.133-.17.055-.32.129-.446.222a1.062 1.062 0 0 0-.305.355 1.142 1.142 0 0 0-.116.545c0 .21.039.385.116.528a.888.888 0 0 0 .313.339c.132.082.286.14.463.173.175.033.357.05.544.05.463 0 .82-.077 1.073-.231a1.55 1.55 0 0 0 .562-.554c.12-.214.195-.432.223-.651.027-.22.04-.397.04-.529v-.875c-.098.088-.222.157-.37.207zm-4.63-3.31c.242-.364.55-.655.924-.875.374-.22.795-.377 1.263-.47.468-.094.938-.141 1.412-.141.429 0 .863.03 1.304.09.44.062.842.18 1.205.356.363.176.66.42.891.734.231.314.347.73.347 1.246v4.441c0 .386.022.754.066 1.107.044.352.12.616.231.792h-2.377a3.432 3.432 0 0 1-.165-.825 3.054 3.054 0 0 1-1.32.808 5.311 5.311 0 0 1-1.553.231 4.19 4.19 0 0 1-1.139-.148 2.602 2.602 0 0 1-.924-.463 2.147 2.147 0 0 1-.62-.792c-.148-.32-.222-.699-.222-1.139 0-.484.085-.883.256-1.197.17-.313.39-.564.66-.751.27-.187.578-.328.925-.42a9.939 9.939 0 0 1 1.048-.224c.352-.055.699-.1 1.04-.132.34-.033.644-.082.908-.148.264-.066.473-.163.627-.29.154-.126.226-.31.215-.552 0-.254-.041-.454-.124-.602a.908.908 0 0 0-.33-.347 1.288 1.288 0 0 0-.479-.166 3.94 3.94 0 0 0-.586-.04c-.462 0-.825.098-1.09.297-.264.197-.418.527-.462.99H31.7c.033-.55.17-1.007.413-1.37zM43.504 61.175v1.188h.048c.298-.495.683-.855 1.156-1.08a3.344 3.344 0 0 1 1.453-.339c.627 0 1.141.085 1.543.256.402.17.719.407.95.71.23.303.393.67.487 1.106.093.434.14.916.14 1.444v5.25h-2.344v-4.82c0-.705-.11-1.23-.33-1.577-.22-.347-.611-.52-1.173-.52-.638 0-1.1.19-1.386.569-.286.38-.43 1.005-.43 1.874v4.474h-2.344v-8.535h2.23M54.976 62.71c-.374 0-.688.086-.94.256-.254.17-.46.39-.62.66-.16.27-.272.568-.338.892a4.635 4.635 0 0 0 0 1.907c.066.319.173.608.322.866.148.259.349.47.602.636.253.165.561.247.925.247.56 0 .993-.157 1.296-.47.302-.314.492-.735.569-1.263h2.262c-.155 1.134-.595 1.998-1.32 2.591-.728.595-1.658.892-2.79.892a4.673 4.673 0 0 1-1.76-.322 3.895 3.895 0 0 1-1.36-.9 4.087 4.087 0 0 1-.876-1.378 4.773 4.773 0 0 1-.314-1.758c0-.66.096-1.274.29-1.84a4.136 4.136 0 0 1 .85-1.47 3.888 3.888 0 0 1 1.37-.966c.539-.23 1.155-.346 1.848-.346.507 0 .994.066 1.462.198.467.132.885.333 1.254.603.369.27.669.605.9 1.007.23.401.363.877.396 1.427H56.71c-.155-.979-.733-1.469-1.734-1.469M65.616 63.172c-.281-.307-.708-.462-1.28-.462-.374 0-.685.063-.932.19a1.728 1.728 0 0 0-.908 1.065c-.061.209-.097.396-.108.561h3.813c-.11-.594-.305-1.045-.585-1.354zm-2.65 4.49c.352.342.858.512 1.519.512.473 0 .88-.118 1.221-.354.341-.237.55-.488.628-.751h2.063c-.33 1.023-.836 1.755-1.519 2.195-.682.44-1.508.66-2.476.66-.671 0-1.277-.107-1.816-.322a3.775 3.775 0 0 1-1.37-.916 4.122 4.122 0 0 1-.867-1.42 5.197 5.197 0 0 1-.305-1.816c0-.638.105-1.232.314-1.782.208-.55.506-1.026.891-1.428a4.188 4.188 0 0 1 1.379-.95 4.425 4.425 0 0 1 1.774-.346c.726 0 1.36.14 1.899.42.539.281.982.659 1.328 1.132.347.473.597 1.013.752 1.617.154.606.208 1.239.165 1.899h-6.158c.033.76.226 1.31.578 1.65z" fill="#FFE32C"/><path fill="#FFFFFE" d="M69.618 69.71h2.592v-2.542h-2.592z"/></g></svg>