<svg enable-background="new 0 0 475 475" viewBox="0 0 475 475" xmlns="http://www.w3.org/2000/svg"><g fill="#666666"><path d="m238 0c-131 0-238 107-238 238s107 237 238 237 237-106 237-237-106-238-237-238zm0 432c-107 0-194-87-194-194s87-194 194-194 194 87 194 194-87 194-194 194z"/><path d="m236 89c-80 0-98 59-98 82 0 12 10 21 22 21s22-9 22-21c0-9 5-39 54-39 24 0 42 7 53 19 14 15 13 35 12 43-3 23-15 35-38 35-40 0-49 22-49 40v18c0 12 10 22 22 22s22-10 22-22v-14c1 0 3-1 5-1 35 0 75-19 81-73 3-29-4-57-22-77-13-15-40-33-86-33z"/><path d="m236 331c-15 0-27 12-27 27s12 27 27 27 27-12 27-27-12-27-27-27z"/></g></svg>
