<svg height="159.187549" preserveAspectRatio="xMidYMid" viewBox="30.40063477 -4.59377441 439.19873047 159.18754883" width="439.19873" xmlns="http://www.w3.org/2000/svg" xmlns:xlink="http://www.w3.org/1999/xlink"><filter id="a"><feFlood flood-color="#ffb646" flood-opacity=".7" result="c1"/><feFlood flood-color="#f90" flood-opacity=".7" result="c3"/><feComposite in="c1" in2="SourceAlpha" operator="in" result="text-c1"/><feComposite in="c3" in2="SourceAlpha" operator="in" result="text-c3"/><feOffset dx="5" dy="-1" in="text-c1" result="text1"/><feOffset dx="-5" dy="1" in="text-c3" result="text3"/><feBlend in="SourceGraphic" in2="text1" mode="multiply" result="text4"/><feBlend in="text4" in2="text3" mode="multiply"/></filter><g filter="url(#a)"><path d="m15.31 1.31q-3.91 0-7.18-1.18-3.26-1.17-6.3-3.78v-3.57q5.48 6 13.66 6 7.48 0 11.65-4.65 4.18-4.66 4.18-13.79v-43.07h-16.09v-2.52h18.96v45.24q0 10.44-5.04 15.88-5.05 5.44-13.84 5.44zm48.46-.35q-8.26 0-12.74-4.53-4.48-4.52-4.48-12.79v-22.79h2.78v22.79q0 7.14 3.78 11.01 3.79 3.87 10.66 3.87 4.18 0 7.66-1.87 3.48-1.87 5.48-5.26 2-3.4 2-7.75v-22.79h2.78v39.15h-2.78v-7.31q-2 3.66-6 5.96-4.01 2.31-9.14 2.31zm47.33 0q-5.66 0-10.4-2.79-4.74-2.78-7.52-7.48-2.79-4.7-2.79-10.27 0-5.56 2.79-10.26 2.78-4.7 7.52-7.48 4.74-2.79 10.4-2.79 5.48 0 10.44 2.92 4.96 2.91 7.31 7.61v-35.67h2.78v65.25h-2.78v-9.48q-2.61 4.69-7.53 7.57-4.91 2.87-10.22 2.87zm-.09-2.44q4.79 0 8.92-2.48 4.13-2.48 6.61-6.61 2.48-4.13 2.48-8.92 0-4.78-2.48-8.96-2.48-4.18-6.61-6.7-4.13-2.52-8.92-2.52-4.78 0-8.87 2.48-4.09 2.48-6.53 6.65-2.43 4.18-2.43 8.96 0 4.88 2.39 9.01 2.39 4.13 6.52 6.61 4.14 2.48 8.92 2.48zm47.77 18.79q-9.75 0-15.4-6.96v-4.43q2.87 4.52 6.52 6.74 3.66 2.22 8.53 2.22 4.96 0 8.48-2.09 3.52-2.09 5.35-5.7 1.83-3.61 1.83-8.05v-6.61q-2.09 4.09-6.31 6.31-4.22 2.22-9.18 2.22-4.96 0-8.79-2.18-3.82-2.17-5.96-6.09-2.13-3.91-2.13-9.05v-22.79h2.79v22.79q0 4.7 1.95 8.05 1.96 3.35 5.18 5.09 3.22 1.74 7.05 1.74 4.17 0 7.74-2.04 3.57-2.05 5.61-5.48 2.05-3.44 2.05-7.36v-22.79h2.78v37.93q0 5.22-2.13 9.44-2.13 4.22-6.22 6.66-4.09 2.43-9.74 2.43zm48.72-17.31v-65.25h2.87v37.84h44.71v-37.84h2.88v65.25h-2.88v-24.88h-44.71v24.88zm81.86-1.39q4.53 0 8.62-2.35 4.08-2.35 6.78-6.44v4.44q-3.22 3.56-7.05 5.17-3.82 1.61-8.7 1.61-5.39 0-10.13-2.87-4.74-2.87-7.57-7.65-2.83-4.79-2.83-10.18 0-5.83 2.79-10.49 2.78-4.65 7.61-7.26 4.83-2.61 10.74-2.61 9.05 0 15.4 7.13l-27.32 26.97q2.88 2.35 5.57 3.44 2.7 1.09 6.09 1.09zm-18.09-18.53q0 7.22 4.78 12.35l25.49-25.32q-2.87-2.52-5.57-3.61-2.69-1.08-6.43-1.08-5.31 0-9.44 2.3-4.14 2.31-6.48 6.31-2.35 4-2.35 9.05z" fill="#ff765c" transform="translate(96.567186 116.623749)"/></g></svg>