<svg id="b7e4567d-693b-48c9-bcbf-8bcfba4a7572" data-name="Calque 1" xmlns="http://www.w3.org/2000/svg" xmlns:xlink="http://www.w3.org/1999/xlink" viewBox="0 0 237.67 351"><defs><style>.\37 8a31261-2aca-49ea-95a3-581b075831b2{fill:none;stroke:#fcb7a8;stroke-linecap:square;stroke-miterlimit:10;stroke-width:11px;}.c3796e2c-349a-4d4f-a912-97e5814e6175{clip-path:url(#0a3a82ad-0181-40b3-8a5f-90f8e28fe72b);}</style><clipPath id="0a3a82ad-0181-40b3-8a5f-90f8e28fe72b"><polygon class="78a31261-2aca-49ea-95a3-581b075831b2" points="118.83 5.5 5.5 5.5 5.5 118.83 118.83 118.83 118.83 232.17 118.83 345.5 232.17 345.5 232.17 232.17 232.17 118.83 232.17 5.5 118.83 5.5"/></clipPath></defs><title>brique-wokine-3</title><g class="c3796e2c-349a-4d4f-a912-97e5814e6175"><line class="78a31261-2aca-49ea-95a3-581b075831b2" x1="-191.94" y1="-165.51" x2="502.73" y2="29.15"/><line class="78a31261-2aca-49ea-95a3-581b075831b2" x1="-191.94" y1="-127.78" x2="502.73" y2="66.89"/><line class="78a31261-2aca-49ea-95a3-581b075831b2" x1="-191.94" y1="-90.04" x2="502.73" y2="104.62"/><line class="78a31261-2aca-49ea-95a3-581b075831b2" x1="-191.94" y1="-52.31" x2="502.73" y2="142.36"/><line class="78a31261-2aca-49ea-95a3-581b075831b2" x1="-191.94" y1="-14.58" x2="502.73" y2="180.09"/><line class="78a31261-2aca-49ea-95a3-581b075831b2" x1="-191.94" y1="23.16" x2="502.73" y2="217.83"/><line class="78a31261-2aca-49ea-95a3-581b075831b2" x1="-191.94" y1="60.89" x2="502.73" y2="255.56"/><line class="78a31261-2aca-49ea-95a3-581b075831b2" x1="-191.94" y1="98.63" x2="502.73" y2="293.29"/><line class="78a31261-2aca-49ea-95a3-581b075831b2" x1="-191.94" y1="136.36" x2="502.73" y2="331.03"/><line class="78a31261-2aca-49ea-95a3-581b075831b2" x1="-191.94" y1="174.1" x2="502.73" y2="368.76"/><line class="78a31261-2aca-49ea-95a3-581b075831b2" x1="-191.94" y1="211.83" x2="502.73" y2="406.5"/><line class="78a31261-2aca-49ea-95a3-581b075831b2" x1="-191.94" y1="249.57" x2="502.73" y2="444.23"/><line class="78a31261-2aca-49ea-95a3-581b075831b2" x1="-191.94" y1="287.3" x2="502.73" y2="481.97"/><line class="78a31261-2aca-49ea-95a3-581b075831b2" x1="-191.94" y1="325.04" x2="502.73" y2="519.7"/></g><polygon class="78a31261-2aca-49ea-95a3-581b075831b2" points="118.83 5.5 5.5 5.5 5.5 118.83 118.83 118.83 118.83 232.17 118.83 345.5 232.17 345.5 232.17 232.17 232.17 118.83 232.17 5.5 118.83 5.5"/></svg>