<svg width="26" height="18" xmlns="http://www.w3.org/2000/svg"><path d="M2 0C1.607 0 1.246.121.937.323l11.26 10.667c.494.467 1.133.467 1.626 0L25.063.323A1.928 1.928 0 0 0 24 0H2zM.125 1.375c-.076.22-.125.45-.125.698v13.854c0 .421.117.809.323 1.136L8.28 9.115.125 1.375zm25.75 0l-8.135 7.73 7.937 7.958c.206-.327.323-.715.323-1.136V2.073c0-.248-.049-.478-.125-.698zm-9.104 8.656l-2.031 1.927a2.516 2.516 0 0 1-3.459 0L9.25 10.042l-7.875 7.854c.197.067.406.104.625.104h22c.22 0 .428-.037.625-.104l-7.854-7.865z" fill="#000" fill-rule="nonzero" id="email-fill"/></svg>
