<svg xmlns="http://www.w3.org/2000/svg" viewBox="0 0 50 50" width="100" height="100"><path d="M47 30c0-6.1-5.8-11-13-11s-13 4.9-13 11 5.8 11 13 11c1.8 0 3.5-.3 5-.8l5 2.8-1.4-4.8c2.7-2 4.4-4.9 4.4-8.2z" fill="none" stroke="#000" stroke-width="2" stroke-miterlimit="10"/><path d="M31 27.5c0 .8-.7 1.5-1.5 1.5s-1.5-.7-1.5-1.5.7-1.5 1.5-1.5 1.5.7 1.5 1.5zm7.5-1.5c-.8 0-1.5.7-1.5 1.5s.7 1.5 1.5 1.5 1.5-.7 1.5-1.5-.7-1.5-1.5-1.5z"/><path d="M21 30c0-6.1 5.8-11 13-11 .658 0 1.298.054 1.929.133l-.034-.263C34.938 11.533 27.675 6 19 6 9.626 6 2 12.505 2 20.5c0 4.269 2.059 8.109 5.816 10.888l-2.639 7.917 8.25-5.107c2.56.807 5.75 1.029 8.73.554l.111-.018C21.464 33.299 21 31.7 21 30zm4-16c1.1 0 2 .9 2 2s-.9 2-2 2-2-.9-2-2 .9-2 2-2zm-12 4c-1.1 0-2-.9-2-2s.9-2 2-2 2 .9 2 2-.9 2-2 2z"/></svg>