<svg height="23" viewBox="0 0 89 23" width="89" xmlns="http://www.w3.org/2000/svg"><path d="m.2595 17.667c.76666655.0766665 1.32633345.115 1.679.115.69 0 1.15-.138 1.38-.414s.345-.805.345-1.587v-15.157h4.324v15.088c0 1.932-.391 3.3503335-1.173 4.255s-2.12366655 1.357-4.025 1.357c-.75133345 0-1.59466655-.069-2.53-.207zm22.218-12.351v11.684h-4.071v-1.564c-.7513335 1.1653335-1.863 1.748-3.335 1.748-1.4873335 0-2.5951665-.414-3.3235-1.242s-1.0925-2.093-1.0925-3.795v-6.831h4.163v6.946c0 1.15.4983335 1.725 1.495 1.725.5826665 0 1.0541665-.207 1.4145-.621s.5405-.966.5405-1.656v-6.394zm14.789-5.244v16.928h-4.094v-1.587c-.3373335.552-.828.9851665-1.472 1.2995s-1.3493335.4715-2.116.4715c-.9966665 0-1.886-.2568335-2.668-.7705s-1.3915-1.2343335-1.8285-2.162-.6555-1.9971665-.6555-3.2085c0-1.196.2185-2.254.6555-3.174s1.0465-1.62916655 1.8285-2.1275 1.6713335-.7475 2.668-.7475c.736 0 1.4145.15333345 2.0355.46s1.1155.72066655 1.4835 1.242v-6.624zm-4.692 13.2365c.3986665-.5136665.598-1.2535.598-2.2195 0-.9353335-.2031665-1.65983345-.6095-2.1735s-.9698335-.7705-1.6905-.7705c-.7513335 0-1.3263335.24916655-1.725.7475s-.598 1.2151665-.598 2.1505c0 .966.2031665 1.7135.6095 2.2425s.9775.7935 1.7135.7935 1.3033335-.2568335 1.702-.7705zm19.251-7.9925-5.359 12.098c-.7053335 1.5793335-1.5908335 2.7331665-2.6565 3.4615s-2.3805 1.1845-3.9445 1.3685l-.966-3.174c1.0733335-.2146665 1.8783335-.4906665 2.415-.828s.943-.805 1.219-1.403l.299-.644-4.761-10.879h4.324l2.622 6.739 2.714-6.739zm18.538-4.692h4.232v16.376h-4.232v-6.624h-6.624v6.624h-4.232v-16.376h4.232v6.371h6.624zm17.733 10.948h-7.337c.0766665.9046665.3373335 1.5563335.782 1.955s1.0963335.598 1.955.598c.5826665 0 1.1653335-.0958335 1.748-.2875s1.1116665-.4561665 1.587-.7935l1.058 2.76c-.5826665.4293335-1.288.7666665-2.116 1.012s-1.656.368-2.484.368c-1.334 0-2.4916665-.2453335-3.473-.736s-1.7326665-1.1921665-2.254-2.1045-.782-1.9895-.782-3.2315c0-1.18066655.2491665-2.23483345.7475-3.1625s1.1883335-1.65216655 2.07-2.1735 1.8898335-.782 3.0245-.782c1.104 0 2.07.24533345 2.898.736s1.4643335 1.19216655 1.909 2.1045.667 1.97416655.667 3.1855zm-7.291-1.932h3.726c-.1533335-1.196-.7513335-1.794-1.794-1.794-1.0273335 0-1.6713335.598-1.932 1.794z" fill="#333"/></svg>