<svg width="22" height="18" xmlns="http://www.w3.org/2000/svg"><path d="M22 2.13c-.806.36-1.68.609-2.592.718A4.573 4.573 0 0 0 21.395.33c-.873.52-1.839.9-2.873 1.102A4.49 4.49 0 0 0 15.232 0c-2.49 0-4.511 2.036-4.511 4.544 0 .358.041.703.115 1.035C7.082 5.39 3.76 3.583 1.53.831A4.536 4.536 0 0 0 .92 3.118c0 1.575.8 2.969 2.008 3.779a4.42 4.42 0 0 1-2.04-.568v.055a4.55 4.55 0 0 0 3.617 4.463 4.625 4.625 0 0 1-2.04.075 4.532 4.532 0 0 0 4.216 3.157 9.028 9.028 0 0 1-5.606 1.94A9.62 9.62 0 0 1 0 15.96C2 17.25 4.37 18 6.92 18c8.298 0 12.837-6.924 12.837-12.928l-.014-.588A9.127 9.127 0 0 0 22 2.129z" fill="#000" fill-rule="evenodd" id="twitter-fill"/></svg>
