<svg width="12" height="20" xmlns="http://www.w3.org/2000/svg"><path d="M11.55.004L8.67 0C5.438 0 3.348 1.932 3.348 4.922v2.27H.452c-.25 0-.452.182-.452.407v3.289c0 .224.203.407.452.407h2.895v8.298c0 .224.202.407.453.407h3.775c.25 0 .453-.183.453-.407v-8.298h3.383c.25 0 .453-.183.453-.407l.002-3.289a.392.392 0 0 0-.133-.288.478.478 0 0 0-.32-.12H8.028V5.269c0-.925.244-1.394 1.58-1.394l1.94-.001c.25 0 .452-.183.452-.408V.412c0-.225-.202-.407-.45-.408z" fill="#000" fill-rule="evenodd" id="facebook-fill"/></svg>
